<?xml version="1.0" encoding="utf-8"?><svg viewBox="0 0 32 32" xmlns="http://www.w3.org/2000/svg" xmlns:xlink="http://www.w3.org/1999/xlink"><style>:root>svg{display:none}:root>svg:target{display:block}</style><svg viewBox="0 0 32 32" id="exit" xmlns="http://www.w3.org/2000/svg"><defs><style>.acls-1{fill:none;stroke:#000;stroke-linecap:round;stroke-linejoin:round;stroke-width:2px}</style></defs><path class="acls-1" d="M7 7l18 18M7 25L25 7" id="across"/></svg><svg viewBox="0 0 32 32" id="fb" xmlns="http://www.w3.org/2000/svg"><path d="M13.04 29.333L13 17.666H8v-5h5V9.333c0-4.493 2.787-6.667 6.8-6.667 1.92 0 3.573.133 4.053.2v4.707h-2.787c-2.173 0-2.6 1.04-2.6 2.56v2.533h6.2l-1.667 5h-4.533v11.667h-5.427.001z"/></svg><svg viewBox="0 0 32 32" id="inst" xmlns="http://www.w3.org/2000/svg"><path d="M17.36 2.667c2.4 0 2.907.027 4.133.08 1.413.067 2.387.293 3.227.627.88.333 1.627.8 2.36 1.533.747.733 1.2 1.48 1.547 2.36.333.84.547 1.813.613 3.24.067 1.267.08 1.76.08 4.427v2.133c0 2.667-.013 3.16-.08 4.427a9.763 9.763 0 01-.636 3.294l.022-.067c-.347.88-.8 1.627-1.533 2.36a6.632 6.632 0 01-2.373 1.547c-.84.333-1.813.547-3.227.613-1.267.067-1.773.08-4.44.08h-2.12c-2.667 0-3.16-.013-4.44-.08a9.763 9.763 0 01-3.294-.636l.067.022a6.575 6.575 0 01-2.359-1.533l-.001-.001a6.544 6.544 0 01-1.532-2.329l-.015-.045a9.59 9.59 0 01-.613-3.217v-.01a70.693 70.693 0 01-.08-4.167v.034-2.733c0-2.4.027-2.907.08-4.133.067-1.413.293-2.387.613-3.227.347-.88.8-1.627 1.547-2.36a6.27 6.27 0 012.317-1.519l.043-.014a9.576 9.576 0 013.215-.626h.012c1.227-.053 1.733-.08 4.133-.08h2.734zm.027 2.4H14.6c-2.307 0-2.8.027-4 .08-1.293.053-2 .267-2.467.453a4.068 4.068 0 00-1.533 1c-.466.467-.76.907-1 1.533-.173.467-.4 1.173-.453 2.48-.053 1.2-.08 1.68-.08 4v2.773c0 2.32.027 2.8.08 4 .053 1.293.267 2 .453 2.467.24.627.533 1.067 1 1.533.467.466.907.76 1.533 1 .467.187 1.173.4 2.48.453 1.293.067 1.76.08 4.64.08h1.48c2.893 0 3.347-.013 4.653-.08 1.293-.053 2-.267 2.467-.453a4.068 4.068 0 001.533-1c.466-.467.76-.907 1-1.533.187-.467.4-1.173.453-2.467.067-1.307.08-1.76.08-4.653v-1.467c0-2.893-.013-3.36-.08-4.667-.053-1.293-.267-2-.453-2.467a4.142 4.142 0 00-.999-1.532l-.001-.001a4.141 4.141 0 00-1.505-.991l-.028-.009a7.322 7.322 0 00-2.462-.453h-.005a70.03 70.03 0 00-4.03-.08h.03l.001.001zM16 9.147a6.847 6.847 0 110 13.694 6.847 6.847 0 010-13.694zm0 2.4a4.447 4.447 0 100 8.894 4.447 4.447 0 000-8.894zm7.107-4.267a1.6 1.6 0 110 3.2 1.6 1.6 0 010-3.2z"/></svg><svg viewBox="0 0 32 32" id="pint" xmlns="http://www.w3.org/2000/svg"><path d="M16 2.667C8.657 2.694 2.714 8.653 2.714 16c0 5.599 3.452 10.393 8.343 12.368l.089.032c-.133-1.053-.227-2.667.04-3.827l1.56-6.627s-.4-.8-.4-1.973c0-1.853 1.08-3.227 2.427-3.227 1.133 0 1.693.853 1.693 1.867 0 1.147-.733 2.853-1.12 4.44-.32 1.333.667 2.413 1.987 2.413 2.373 0 4.187-2.493 4.187-6.093 0-3.2-2.293-5.413-5.573-5.413a5.773 5.773 0 00-6.026 5.767v.006c0 1.147.44 2.373.987 3.04.107.133.12.253.08.387l-.373 1.507c-.053.24-.2.307-.44.187-1.68-.787-2.72-3.2-2.72-5.173 0-4.2 3.067-8.053 8.827-8.053 4.613 0 8.227 3.28 8.227 7.693 0 4.6-2.907 8.293-6.933 8.293-1.333 0-2.613-.707-3.04-1.533l-.84 3.16a14.615 14.615 0 01-1.688 3.563l.034-.056c1.17.372 2.516.587 3.911.587 7.364 0 13.333-5.97 13.333-13.333 0-7.347-5.942-13.306-13.282-13.333h-.003L16 2.667z"/></svg><svg viewBox="0 0 32 32" id="tw" xmlns="http://www.w3.org/2000/svg"><path d="M29.333 7.84c-1 .493-2 .667-3.173.827 1.173-.667 2-1.667 2.333-3a10.755 10.755 0 01-3.423 1.322l-.07.012a5.795 5.795 0 00-3.996-1.667H21c-2.84 0-5.333 2.507-5.333 5.507 0 .493 0 .827.173 1.16A15.317 15.317 0 014.529 6.362l-.022-.028a5.012 5.012 0 00-.666 2.855l-.001-.015a5.466 5.466 0 002.473 4.481l.021.013c-.84 0-1.667-.333-2.507-.667 0 2.667 1.84 4.84 4.333 5.333-.493.173-1 .173-1.493.173-.333 0-.667 0-1-.173.667 2.173 2.667 3.84 5.173 3.84a10.535 10.535 0 01-6.637 2.335l-.213-.002h.011-1.333c2.365 1.509 5.236 2.429 8.316 2.493h.017c10 0 15.507-8.333 15.507-15.507v-.667a9.777 9.777 0 002.803-2.944l.024-.042h-.002z"/></svg></svg>